<svg aria-hidden="true" style="position:absolute;width:0;height:0;overflow:hidden" xmlns="http://www.w3.org/2000/svg">
  <defs>
    <symbol id="arrow-button" viewBox="0 0 10 10">
      <path
        style="color:#000000;stroke-linecap:round;stroke-linejoin:round;-inkscape-stroke:none"
        d="m 0.89453125,0.00585938 a 1,1 0 0 0 -0.671875,0.36523437 1,1 0 0 0 0.1484375,1.40624995 L 4.359375,5 0.37109375,8.2226563 a 1,1 0 0 0 -0.1484375,1.40625 1,1 0 0 0 1.40624995,0.1484375 L 6.5761719,5.7773437 a 1.0001,1.0001 0 0 0 0,-1.5546875 L 1.6289062,0.22265625 A 1,1 0 0 0 0.89453125,0.00585938 Z"/>
    </symbol>
    <symbol id="arrow-default" viewBox="0 0 82 32">
      <path d="M81.414 17.414a2 2 0 0 0 0-2.828L68.686 1.858a2 2 0 1 0-2.828 2.828L77.172 16 65.858 27.314a2 2 0 1 0 2.828 2.828l12.728-12.728zM0 18h80v-4H0v4z"/>
    </symbol>
    <symbol id="arrow-focus" viewBox="0 0 69 32">
      <path d="M68.081 17.414a2 2 0 0 0 0-2.829L55.353 1.857a2 2 0 1 0-2.828 2.828l11.314 11.314-11.314 11.314a2 2 0 1 0 2.828 2.828l12.728-12.728zM0 18h66.667v-4H0v4z"/>
    </symbol>
    <symbol id="arrow-hover" viewBox="0 0 102 32">
      <path d="M101.414 17.414a2 2 0 0 0 0-2.828L88.686 1.858a2 2 0 1 0-2.828 2.828L97.172 16 85.858 27.314a2 2 0 1 0 2.828 2.828l12.728-12.728zM0 18h100v-4H0v4z"/>
    </symbol>
    <symbol id="cross" viewBox="0 0 32 32">
      <path d="M23.884 6.706 16 14.59 8.116 6.706a.995.995 0 0 0-1.38.031 1 1 0 0 0-.031 1.38l7.88 7.884-7.882 7.882a1.002 1.002 0 0 0-.018 1.427.998.998 0 0 0 1.427-.015l7.886-7.882 7.884 7.884a1 1 0 0 0 1.38-.03 1 1 0 0 0 .03-1.38l-7.884-7.884 7.884-7.886a1.002 1.002 0 0 0 .018-1.427.998.998 0 0 0-1.427.015v.002z"/>
    </symbol>
    <symbol id="menu" viewBox="0 0 32 32">
      <path d="M6.4 11.734v-2.134h19.2v2.134h-19.2zM6.4 17.066h19.2v-2.133h-19.2v2.133zM6.4 22.4h19.2v-2.134h-19.2v2.134z"></path>
    </symbol>
  </defs>
</svg>
